<svg xmlns="http://www.w3.org/2000/svg" id="svg2" width="805" height="805.013" version="1.1"><g id="layer1" transform="translate(0 -247.362)"><path id="path3037" d="M402.5 247.375C180.205 247.375 0 427.58 0 649.875c0 101.803 37.802 194.774 100.125 265.656l-.062-.125 13.406-21.125C58.288 828.981 25 744.562 25 652.375c0-207.107 167.893-375 375-375s375 167.893 375 375c0 94.236-34.759 180.342-92.156 246.219l17.593 21.906C765.405 849.021 805 754.076 805 649.875c0-222.295-180.205-402.5-402.5-402.5zm239.531 691.438c-65.316 55.24-149.788 88.562-242.031 88.562-91.355 0-175.074-32.68-240.125-86.969l-34.312 1.532c72.153 68.439 169.637 110.437 276.937 110.437 108.523 0 207.016-42.954 279.406-112.781z" style="fill:#020000;fill-opacity:1;stroke:#000;stroke-width:0;stroke-miterlimit:4;stroke-opacity:1;stroke-dasharray:none"/><path id="path3062" d="M577 442.362v-89c0-10-11-22-23-22H254l-23 23 1 260c0 6 4 10 10 10h318l17-14v-94h-30v75c0 7-4 9-8 9H266c-1 0-2-1-2-3v-228c0-3 3-4 4-4l271-1c4 0 8 4 8 8l1 70z" style="fill:#000;fill-opacity:1;stroke:#000;stroke-width:0;stroke-linecap:butt;stroke-linejoin:miter;stroke-miterlimit:4;stroke-opacity:1;stroke-dasharray:none"/><path id="path3832" d="m272 591.362 1-218h43l184 185v-184l39 1-2 220h-52l-179-177h-1v173z" style="fill:#000;fill-opacity:1;stroke:#000;stroke-width:0;stroke-linecap:butt;stroke-linejoin:miter;stroke-miterlimit:4;stroke-opacity:1;stroke-dasharray:none"/><path id="path3834" d="m196 627.362 92 7 117 118h8l120-122 82-3v161h-35l-1-130-23 1-128 129h-34l-132-129h-32v129h-34z" style="fill:#000;fill-opacity:1;stroke:#000;stroke-width:0;stroke-linecap:butt;stroke-linejoin:miter;stroke-miterlimit:4;stroke-opacity:1;stroke-dasharray:none"/><path id="path3836" d="m608 797.362-407-1-91 123v3l8 10h566c8 0 8-20-1-32l-22-32-29 2c-3 0-6 6-5 8 10 7 12.469 14.651 12 23l-478 1v-1l62-79 360-2 26 25c16 7 34 0 34-6z" style="fill:#000;fill-opacity:1;stroke:#000;stroke-width:.1px;stroke-linecap:butt;stroke-linejoin:miter;stroke-miterlimit:4;stroke-opacity:1;stroke-dasharray:none"/><path id="path3844" d="M225 824.362h26c-2.284.887-5 1-7 5l-15 25h53l13-25c1.265-2.525-.294-3.795-2-5h27c-3.908.618-7.398 3.21-10 10l-23 59c-.825 2.308-.863 4.528 2 6h-32c1.529-1.532 2.908-2.554 5-6l15-27h-55l-17 26c-2 3-2.33 5.075 1 7h-26c2.96-1.591 5.923-3.264 9-8l37-61c2-3 1.137-4.636-1-6z" style="fill:#000;fill-opacity:1;stroke:#000;stroke-width:0;stroke-linecap:butt;stroke-linejoin:miter;stroke-miterlimit:4;stroke-opacity:1;stroke-dasharray:none"/><path id="path3846" d="M400 834.362v19c-11-10-23.99-12.5-41-13s-26 2-26 12 11.969 9 29 9 43.366.225 44 16-20.496 22.73-46 23-42-8-52-7v-18c11.302 6.28 26.769 12.72 47 13s34-.5 33-9-11.267-7.777-28-8-45-2-44-19 25.543-22.706 40-23c14.458-.293 25.924 1.883 39 6 2.589.366 4.136-.058 5-1z" style="fill:#000;fill-opacity:1;stroke:#000;stroke-width:0;stroke-linecap:butt;stroke-linejoin:miter;stroke-miterlimit:4;stroke-opacity:1;stroke-dasharray:none"/><path id="path3848" d="M412 829.362h20c-.508.432-1 1-1 3v2l61 38-18-38c-1.46-3.112-3.316-3.558-5-5h28c-2.589 1.873-4.1 4.283-3 8l18 60c.658 1.935 1.996 3.328 4 4h-20c1.292-.967 2.847-1.327 2-4l-2-7-65-40v47c0 2 3.111 2.893 5 4h-24c1.637-.726 4-2 4-4v-64c0-2-2.28-3.082-4-4z" style="fill:#000;fill-opacity:1;stroke:#000;stroke-width:0;stroke-linecap:butt;stroke-linejoin:miter;stroke-miterlimit:4;stroke-opacity:1;stroke-dasharray:none"/><path id="path3850" d="M512 830.362h26c-2.138 1.38-4.022 2.868-3 6l13 36c1.79 10.577 15.96 17.448 32 16.875 14.656-.524 24.076-4.292 17-16.875l-23-38c-2.202-3.432-4.647-3.624-7-5h25c-1.334 1.315-3.662 2.108-2 5l24 38c9.553 19.395-7.802 28.804-27.875 28.75-22.726-.06-47.57-5.447-51.125-23.75l-17-41c-1.913-4.585-3.976-4.933-6-6z" style="fill:#000;fill-opacity:1;stroke:#000;stroke-width:0;stroke-linecap:butt;stroke-linejoin:miter;stroke-miterlimit:4;stroke-opacity:1;stroke-dasharray:none"/><g id="text3852" style="letter-spacing:0;word-spacing:0;fill:#000;fill-opacity:1;stroke:none;font-family:Sans;font-size:58px;font-style:normal;font-weight:400;line-height:125%"><path id="path3970" d="m121.06 829.904-2.089-5.268q6.5-2.558 12.009-.997 5.508 1.56 9.302 6.82 3.927 5.445 4.17 10.454.245 5.01-2.674 9.821-2.919 4.812-7.743 8.292-5.26 3.795-10.625 4.609-5.367.814-10.075-1.428t-7.922-6.699q-3.645-5.053-3.558-10.354t3.772-10.02l4.198 3.642q-2.83 3.822-2.9 7.26-.068 3.437 2.367 6.814 2.8 3.881 6.54 5.146 3.742 1.264 7.639.06a24.8 24.8 0 0 0 7.228-3.607q4.295-3.098 6.596-6.662 2.301-3.562 1.98-7.347a13.46 13.46 0 0 0-2.54-6.862q-2.7-3.744-6.732-4.782-4.03-1.038-8.943 1.108" style="font-size:58px"/><path id="path3972" d="M113.848 796.188q3.48 1.302 5.621 3.108t3.602 4.429q2.412 4.33 1.592 7.833t-4.11 5.337q-1.93 1.076-4.015 1.086t-3.842-.874-3.245-2.391q-1.076-1.119-2.873-3.586-3.648-5.036-5.958-7.088-.93.486-1.176.623-2.722 1.517-3.132 3.398-.558 2.548 1.316 5.913 1.75 3.142 3.685 4.025 1.935.885 5.13.044l1.832 4.685q-3.126.965-5.604.56-2.478-.402-4.839-2.458-2.36-2.056-4.249-5.446-1.874-3.365-2.254-5.909t.269-4.202 2.259-3.073q1.013-.857 3.983-2.51l5.937-3.309q6.21-3.46 7.697-4.66t2.527-2.883l2.591 4.651q-.998 1.466-2.744 2.697m-9.74 5.911q2.34 1.873 5.735 6.337 1.926 2.525 3.054 3.388 1.129.862 2.426.95a4.35 4.35 0 0 0 2.46-.56q1.782-.992 2.218-3.002t-1.01-4.608q-1.435-2.573-3.676-3.95-2.242-1.376-4.72-1.228-1.909.123-4.854 1.763z" style="font-size:58px"/><path id="path3974" d="M110.878 783.286 82.95 794.444l-1.692-4.234 3.919-1.565q-2.577-.495-4.698-2.18-2.121-1.683-3.235-4.471-1.24-3.103-.745-5.604t2.484-4.24q-6.215-1.359-8.338-6.672-1.66-4.155-.252-7.31 1.409-3.154 6.195-5.067l19.171-7.66 1.881 4.708-17.594 7.03q-2.84 1.134-3.905 2.093t-1.345 2.474q-.279 1.515.372 3.145 1.178 2.946 3.914 4.109t7.05-.56l16.226-6.483 1.891 4.734-18.146 7.25q-3.156 1.26-4.271 3.048-1.116 1.788-.065 4.418a7.4 7.4 0 0 0 2.528 3.275q1.73 1.275 4.06 1.23 2.33-.048 6.142-1.57l14.491-5.79z" style="font-size:58px"/><path id="path3976" d="m105.035 735.13-40.291 10.364-1.157-4.498 3.785-.974q-2.631-1.02-4.257-2.736t-2.36-4.569q-.959-3.73.228-7.076 1.185-3.346 4.309-5.7 3.123-2.352 7.292-3.425 4.47-1.15 8.463-.466 3.991.684 6.684 3.251 2.694 2.568 3.561 5.942.635 2.468.097 4.698-.537 2.229-1.804 3.9l14.18-3.648zm-26.712 2.105q5.622-1.447 7.725-4.415 2.101-2.967 1.27-6.204-.847-3.291-4.234-4.92t-9.23-.126q-5.567 1.432-7.748 4.434t-1.363 6.185q.81 3.154 4.384 4.823 3.573 1.67 9.196.223" style="font-size:58px"/><path id="path3978" d="m83.277 687.136-4.37.658q5.564 2.714 6.462 8.68.396 2.631-.27 5.066-.664 2.434-2.024 3.77t-3.505 2.116q-1.438.532-4.658 1.016l-18.428 2.772-.758-5.04 16.495-2.482q3.948-.594 5.275-1.109 1.916-.774 2.819-2.486.902-1.71.561-3.98a8.4 8.4 0 0 0-1.802-4.081q-1.462-1.814-3.588-2.339t-5.936.048l-15.935 2.398-.758-5.041 29.741-4.474z" style="font-size:58px"/><path id="path3980" d="m72.994 677.14-1.056-4.993q3.004-.583 4.515-2.605t1.328-5.5q-.184-3.507-1.702-5.13-1.517-1.621-3.44-1.52-1.725.09-2.636 1.64-.624 1.083-1.453 5.295-1.12 5.674-2.039 7.892-.918 2.217-2.684 3.43-1.765 1.213-3.972 1.329a7.75 7.75 0 0 1-3.767-.724 8.25 8.25 0 0 1-2.973-2.354q-.94-1.142-1.655-3.16t-.839-4.366q-.184-3.535.693-6.262.877-2.725 2.55-4.09t4.56-1.997l.94 4.942q-2.301.461-3.516 2.155-1.215 1.695-1.06 4.664.183 3.507 1.422 4.945t2.793 1.357a2.8 2.8 0 0 0 1.75-.716q.787-.664 1.255-2.022.242-.78 1.065-4.565 1.158-5.478 1.966-7.661.807-2.184 2.497-3.492t4.291-1.444q2.545-.134 4.872 1.233 2.325 1.367 3.703 4.102t1.563 6.27q.306 5.855-1.964 9.051-2.272 3.196-7.007 4.295" style="font-size:58px"/><path id="path3982" d="m80.963 628.945-41.266-4.562.62-5.602 34.795-18.093-32.4-3.582.58-5.235 41.265 4.562-.619 5.602-34.824 18.089 32.428 3.585z" style="font-size:58px"/><path id="path3984" d="m81.427 565.715 1.82-4.986q4.217 2.255 5.942 6.111 1.725 3.858.545 8.963-1.486 6.43-6.316 9.28-4.83 2.851-11.977 1.2-7.395-1.71-10.598-6.46-3.204-4.752-1.801-10.823 1.358-5.877 6.22-8.677 4.861-2.8 12.119-1.124.44.102 1.318.334l-5.05 21.854q4.892.84 8.026-1.023t3.981-5.533q.632-2.73-.357-4.995-.989-2.262-3.872-4.121m-11.799 14.452 3.782-16.363q-3.775-.523-5.98.595-3.419 1.71-4.292 5.49-.79 3.421.961 6.282t5.53 3.996" style="font-size:58px"/><path id="path3986" d="m93.056 544.662 4.517.643q-.21 2.19-.719 3.811-.83 2.649-2.124 3.846-1.296 1.197-2.846 1.364t-5.93-1.204l-16.512-5.173-1.117 3.568-3.784-1.186 1.117-3.567-7.107-2.226-1.404-5.752 10.027 3.14 1.532-4.891 3.784 1.185-1.533 4.892 16.783 5.257q2.08.651 2.756.581t1.208-.542q.534-.47.872-1.552.255-.81.48-2.194" style="font-size:58px"/><path id="path3988" d="m100.805 536.07-31.3-3.094 2.03-4.861 17.864 2.272 6.646.842q-.4-.291-5.123-3.827L76.51 516.198l2.018-4.835 17.834 2.567 5.883.83-4.691-3.831-14.06-11.457 1.91-4.573 24.13 20.265-2.04 4.887-18.465-2.524-5.178-.903 19.005 14.534z" style="font-size:58px"/><path id="path3990" d="M101.464 497.062q-7.275-4.105-8.497-10.126-1.004-5.02 1.737-9.88 3.048-5.402 8.521-6.834t11.715 2.089q5.055 2.853 7.099 6.004 2.042 3.153 2.01 6.955-.03 3.803-1.965 7.231-3.103 5.5-8.544 6.903-5.44 1.401-12.076-2.342m2.575-4.563q5.031 2.84 8.774 2.056 3.741-.783 5.62-4.113 1.865-3.305.587-6.92-1.277-3.615-6.432-6.523-4.86-2.74-8.609-1.946-3.749.796-5.6 4.076-1.878 3.33-.625 6.93 1.252 3.602 6.285 6.44" style="font-size:58px"/><path id="path3992" d="m131.827 475.02-24.891-16.883 2.575-3.797 3.774 2.56q-1.663-3.25-1.672-5.053a5.66 5.66 0 0 1 .992-3.28q1.447-2.133 4.3-3.413l2.929 4.108q-1.963.927-3.013 2.473a4.86 4.86 0 0 0-.853 3.05q.085 1.665 1.244 3.135 1.773 2.23 4.445 4.042l13.031 8.839z" style="font-size:58px"/><path id="path3994" d="m142.845 458.974-32.465-25.879 3.178-3.986 18.513 14.758-2.046-17.06 4.113-5.16 1.558 15.946 22.684 1.894-3.92 4.916-18.22-1.813.46 4.966 9.323 7.432z" style="font-size:58px"/><path id="path3996" d="m134.983 412.604-4.33-3.951 3.434-3.766 4.332 3.95zm26.343 24.028-22.22-20.269 3.435-3.766 22.22 20.269z" style="font-size:58px"/><path id="path3998" d="m169.966 427.056-20.725-21.796 3.325-3.161 2.947 3.099q-1.014-5.875 3.521-10.188 1.971-1.873 4.296-2.736t4.24-.494q1.912.369 3.744 1.636 1.18.832 3.62 3.397l12.744 13.401-3.695 3.513-12.606-13.258q-2.147-2.258-3.642-2.966-1.494-.708-3.226-.332-1.733.378-3.21 1.782-2.36 2.245-2.65 5.372-.289 3.129 3.693 7.315l11.318 11.903z" style="font-size:58px"/><path id="path4000" d="m194.425 407.627 4.367-2.456q1.653 1.62 3.414 1.581 2.367-.045 4.963-2.058 2.796-2.17 3.45-4.47.654-2.298-.372-4.729-.64-1.473-3.719-5.395-.227 5.16-4.165 8.214-4.9 3.802-10.329 2.35-5.427-1.452-9.264-6.397-2.64-3.402-3.639-7.231-1-3.83.123-7.21 1.124-3.381 4.278-5.829 4.207-3.264 9.575-1.98l-2.222-2.865 3.715-2.881 15.936 20.54q4.305 5.55 4.972 8.743.667 3.192-.742 6.436t-4.988 6.02q-4.253 3.3-8.354 3.417-4.103.118-6.999-3.8m-7.741-16.863q3.629 4.677 7.152 5.384t6.32-1.463q2.775-2.152 2.997-5.747.222-3.596-3.32-8.16-3.385-4.363-7.04-5.077-3.653-.714-6.383 1.404-2.685 2.085-2.872 5.723-.187 3.64 3.146 7.936" style="font-size:58px"/></g><g id="text3856" style="letter-spacing:0;word-spacing:0;fill:#000;fill-opacity:1;stroke:none;font-family:Sans;font-size:40px;font-style:normal;font-weight:400;line-height:125%"><path id="path3941" d="m608.426 408.215 29.07-29.642 5.904 5.79-13.566 27.87a307 307 0 0 1-2.888 5.775q2.092-1.122 6.237-3.205l27.323-13.664 5.277 5.176-29.07 29.642-3.78-3.708 24.33-24.81-32.944 16.362-3.538-3.47 16.173-33.642-24.747 25.235z" style="font-size:58px"/><path id="path3943" d="M656.992 455.553q-3.645-.732-6.045-2.174-2.401-1.443-4.261-3.799-3.07-3.89-2.82-7.48.252-3.59 3.209-5.923 1.735-1.37 3.79-1.711 2.058-.343 3.933.251t3.584 1.844q1.24.933 3.407 3.083 4.404 4.39 7.01 6.048.84-.627 1.063-.802 2.445-1.93 2.551-3.853.145-2.604-2.24-5.628-2.23-2.823-4.28-3.387t-5.071.773l-2.555-4.333q2.934-1.449 5.443-1.446 2.511.004 5.169 1.657 2.659 1.655 5.062 4.7 2.386 3.023 3.166 5.474t.404 4.192-1.741 3.394q-.865 1.007-3.532 3.112l-5.336 4.211q-5.58 4.404-6.856 5.827a11.3 11.3 0 0 0-2.036 3.248l-3.299-4.18q.755-1.604 2.28-3.098m8.673-7.387q-2.608-1.476-6.67-5.342-2.303-2.187-3.555-2.86-1.251-.67-2.546-.551a4.35 4.35 0 0 0-2.34.944q-1.6 1.263-1.71 3.317-.112 2.055 1.73 4.388 1.825 2.312 4.258 3.315t4.856.46q1.864-.424 4.51-2.513z" style="font-size:58px"/><path id="path3945" d="m661.62 468.038 25.394-16.117 2.458 3.874-3.61 2.291q5.96.143 9.313 5.427 1.458 2.295 1.854 4.744t-.335 4.254q-.732 1.807-2.33 3.358-1.044.998-4.033 2.894l-15.615 9.91-2.731-4.304 15.447-9.803q2.63-1.67 3.614-2.999.985-1.33.95-3.101-.035-1.773-1.127-3.494-1.746-2.75-4.758-3.64-3.014-.888-7.89 2.208l-13.87 8.802z" style="font-size:58px"/><path id="path3947" d="M690.673 511.42q-3.42-1.46-5.475-3.361-2.056-1.902-3.396-4.588-2.213-4.435-1.235-7.898.979-3.462 4.35-5.144 1.975-.987 4.06-.902 2.082.084 3.798 1.048 1.715.964 3.132 2.536 1.026 1.166 2.707 3.713 3.415 5.197 5.63 7.351a68 68 0 0 0 1.203-.568q2.788-1.392 3.284-3.252.673-2.52-1.046-5.967-1.606-3.218-3.498-4.189t-5.123-.277l-1.617-4.763q3.167-.82 5.624-.305t4.721 2.676 3.997 5.634q1.72 3.446 1.983 6.005.264 2.557-.46 4.185-.722 1.627-2.396 2.968-1.051.81-4.093 2.327l-6.082 3.034q-6.36 3.172-7.9 4.305a11.3 11.3 0 0 0-2.656 2.765l-2.377-4.764q1.065-1.417 2.865-2.569m9.997-5.462q-2.252-1.979-5.44-6.59-1.808-2.612-2.897-3.524-1.088-.913-2.38-1.06a4.35 4.35 0 0 0-2.483.447q-1.824.91-2.352 2.898t.8 4.65q1.315 2.634 3.492 4.112t4.66 1.442q1.912-.036 4.928-1.54z" style="font-size:58px"/><path id="path3949" d="m689.993 524.591 1.058 4.898q-2.037 1.1-2.519 2.794-.656 2.275.502 5.35 1.247 3.313 3.251 4.615 2.004 1.304 4.63 1.041 1.596-.178 6.251-1.96-4.862-1.74-6.618-6.405-2.187-5.804.803-10.562t8.847-6.963q4.029-1.519 7.983-1.342 3.955.174 6.853 2.246 2.899 2.07 4.306 5.807 1.876 4.983-.934 9.733l3.392-1.277 1.657 4.4-24.33 9.162q-6.573 2.476-9.82 2.17-3.246-.305-5.93-2.608t-4.28-6.544q-1.897-5.036-.798-8.99 1.097-3.953 5.696-5.565m18.396-2.419q-5.538 2.086-7.255 5.244t-.468 6.471q1.238 3.285 4.607 4.56 3.37 1.273 8.776-.764 5.169-1.946 6.929-5.227 1.76-3.28.543-6.514-1.198-3.18-4.62-4.433-3.424-1.254-8.512.663" style="font-size:58px"/><path id="path3951" d="m718.287 572.383.714 5.26q-4.782-.027-8.106-2.636-3.325-2.608-4.66-7.674-1.684-6.38 1.259-11.155t10.035-6.646q7.339-1.935 12.389.773 5.05 2.71 6.64 8.734 1.538 5.832-1.457 10.577t-10.197 6.645q-.438.115-1.321.32l-5.723-21.688q-4.72 1.538-6.623 4.647-1.905 3.11-.943 6.751.716 2.712 2.645 4.252 1.93 1.542 5.348 1.84m3.698-18.286 4.285 16.238q3.582-1.296 5.012-3.314 2.227-3.106 1.237-6.858-.895-3.395-3.78-5.11-2.883-1.713-6.754-.956" style="font-size:58px"/><path id="path3953" d="m711.94 586.213 29.819-3.922.594 4.52-4.183.55q2.374 1.117 4.015 3.272t2.031 5.131q.435 3.314-.661 5.614-1.097 2.301-3.453 3.497 5.687 2.85 6.433 8.523.585 4.436-1.56 7.146-2.142 2.71-7.253 3.382l-20.469 2.692-.66-5.026 18.784-2.47q3.032-.4 4.301-1.066 1.269-.667 1.914-2.066t.415-3.14q-.413-3.144-2.778-4.947t-6.97-1.197l-17.325 2.278-.664-5.054 19.374-2.548q3.37-.443 4.891-1.9 1.523-1.457 1.153-4.265a7.4 7.4 0 0 0-1.642-3.797q-1.36-1.663-3.63-2.193t-6.34.005l-15.472 2.034z" style="font-size:58px"/><path id="path3955" d="m727.017 654.845-.632 5.27q-4.62-1.23-7.182-4.59-2.561-3.36-2.58-8.6-.024-6.598 4.025-10.48 4.05-3.88 11.385-3.906 7.59-.028 11.796 3.865t4.228 10.123q.022 6.032-4.07 9.87-4.094 3.84-11.541 3.866-.453 0-1.36-.023l-.081-22.43q-4.956.301-7.58 2.831-2.625 2.53-2.61 6.297.01 2.805 1.49 4.78 1.48 1.977 4.712 3.127m8.18-16.767.061 16.794q3.794-.354 5.686-1.947 2.936-2.446 2.922-6.326-.014-3.512-2.372-5.896-2.36-2.385-6.297-2.625" style="font-size:58px"/><path id="path3957" d="m716.985 666.586 29.93 2.952-.45 4.566-4.255-.42q4.607 3.784 3.993 10.012-.267 2.706-1.463 4.879t-2.886 3.145q-1.689.97-3.904 1.208-1.437.142-4.96-.204l-18.404-1.815.5-5.073 18.207 1.795q3.1.306 4.695-.135 1.594-.44 2.659-1.857t1.265-3.447q.319-3.24-1.506-5.797t-7.575-3.124l-16.346-1.612z" style="font-size:58px"/><path id="path3959" d="m715.772 710.399-4.563-.059q-.071-2.198.224-3.871.483-2.733 1.614-4.087 1.13-1.353 2.647-1.717t6.035.433l17.04 3.011.65-3.681 3.905.69-.65 3.68 7.334 1.297 2.13 5.524-10.347-1.828-.892 5.048-3.904-.69.892-5.048-17.319-3.06q-2.147-.38-2.808-.223-.66.156-1.129.692t-.665 1.651q-.148.837-.194 2.238" style="font-size:58px"/><path id="path3961" d="m711.204 763.522-3.037 4.784q-5.888-3.758-7.859-9.134-1.97-5.376.059-11.536 2.1-6.374 6.012-9.514 3.912-3.138 9.52-3.601 5.61-.463 11.259 1.398 6.16 2.03 9.97 5.894t4.76 8.993q.948 5.13-.77 10.347-1.95 5.917-6.292 8.96-4.343 3.04-10.326 2.83l.483-5.537q4.755.046 7.579-1.916t4.126-5.916q1.497-4.546.325-8.316t-4.437-6.218a24.8 24.8 0 0 0-7.164-3.732q-5.03-1.657-9.265-1.428t-7.11 2.711a13.46 13.46 0 0 0-4.063 6.086q-1.446 4.384.082 8.257 1.527 3.873 6.148 6.588" style="font-size:58px"/><path id="path3963" d="m692.87 769.591 38.148 16.386-2.012 4.684-38.148-16.386z" style="font-size:58px"/><path id="path3965" d="m678.729 799.106 3.923 2.031q-2.912-5.462-.14-10.82 1.225-2.363 3.191-3.944t3.852-1.865q1.884-.284 4.08.342 1.476.414 4.368 1.91l16.549 8.568-2.343 4.527-14.814-7.669q-3.546-1.836-4.922-2.197-2.007-.497-3.741.36-1.735.855-2.79 2.892a8.4 8.4 0 0 0-.935 4.363q.119 2.326 1.534 4 1.413 1.671 4.834 3.443l14.31 7.408-2.343 4.527-26.71-13.827z" style="font-size:58px"/><path id="path3967" d="m670.017 814.03 2.592-3.956 34.727 22.753-2.793 4.264-12.39-8.117q1.62 4.92-1.129 9.113a12.6 12.6 0 0 1-3.814 3.78q-2.294 1.46-4.865 1.69-2.57.228-5.46-.582-2.889-.81-5.613-2.594-6.467-4.237-7.901-9.748t1.499-9.987q2.917-4.455 8.297-4.552zm12.8 8.318q-4.526-2.964-7.346-3.052-4.612-.144-6.862 3.291-1.831 2.796-.739 6.424 1.095 3.627 5.903 6.778 4.926 3.23 8.552 2.81 3.625-.417 5.442-3.188 1.83-2.796.738-6.424t-5.689-6.639" style="font-size:58px"/></g><path id="path3037-7" d="M402.5 247.362C180.205 247.362 0 427.568 0 649.862c0 101.803 37.802 194.774 100.125 265.656l-.062-.125 13.406-21.125C58.288 828.968 25 744.55 25 652.362c0-207.107 167.893-375 375-375s375 167.893 375 375c0 94.236-34.759 180.342-92.156 246.219l17.593 21.906C765.405 849.008 805 754.063 805 649.862c0-222.294-180.205-402.5-402.5-402.5zM642.031 938.8c-65.316 55.241-149.788 88.562-242.031 88.562-91.355 0-175.074-32.679-240.125-86.969l-34.312 1.532c72.153 68.44 169.637 110.437 276.937 110.437 108.523 0 207.016-42.954 279.406-112.781z" style="fill:#020000;fill-opacity:1;stroke:#000;stroke-width:0;stroke-miterlimit:4;stroke-opacity:1;stroke-dasharray:none"/><text xml:space="preserve" id="text3892" x="-141.421" y="652.342" style="letter-spacing:0;word-spacing:0;fill:#000;fill-opacity:1;stroke:none;font-family:Sans;font-size:40px;font-style:normal;font-weight:400;line-height:125%"/></g></svg>