<?xml version="1.0" encoding="UTF-8" standalone="no"?>
<!-- Created with Inkscape (http://www.inkscape.org/) -->

<svg
   xmlns:dc="http://purl.org/dc/elements/1.1/"
   xmlns:cc="http://creativecommons.org/ns#"
   xmlns:rdf="http://www.w3.org/1999/02/22-rdf-syntax-ns#"
   xmlns:svg="http://www.w3.org/2000/svg"
   xmlns="http://www.w3.org/2000/svg"
   xmlns:sodipodi="http://sodipodi.sourceforge.net/DTD/sodipodi-0.dtd"
   xmlns:inkscape="http://www.inkscape.org/namespaces/inkscape"
   width="805"
   height="805.01282"
   id="svg2"
   version="1.1"
   inkscape:version="0.48.4 r9939"
   sodipodi:docname="cnmc.svg">
  <defs
     id="defs4" />
  <sodipodi:namedview
     id="base"
     pagecolor="#ffffff"
     bordercolor="#666666"
     borderopacity="1.0"
     inkscape:pageopacity="0.0"
     inkscape:pageshadow="2"
     inkscape:zoom="0.49497475"
     inkscape:cx="311.99114"
     inkscape:cy="462.79159"
     inkscape:document-units="px"
     inkscape:current-layer="layer1"
     showgrid="true"
     showguides="true"
     inkscape:guide-bbox="true"
     fit-margin-top="0"
     fit-margin-left="0"
     fit-margin-right="0"
     fit-margin-bottom="0"
     inkscape:window-width="1440"
     inkscape:window-height="868"
     inkscape:window-x="1020"
     inkscape:window-y="-4"
     inkscape:window-maximized="1">
    <inkscape:grid
       type="xygrid"
       id="grid3060"
       empspacing="5"
       visible="true"
       enabled="true"
       snapvisiblegridlinesonly="true"
       originx="0px"
       originy="0.01283px" />
  </sodipodi:namedview>
  <metadata
     id="metadata7">
    <rdf:RDF>
      <cc:Work
         rdf:about="">
        <dc:format>image/svg+xml</dc:format>
        <dc:type
           rdf:resource="http://purl.org/dc/dcmitype/StillImage" />
        <dc:title></dc:title>
      </cc:Work>
    </rdf:RDF>
  </metadata>
  <g
     inkscape:label="Layer 1"
     inkscape:groupmode="layer"
     id="layer1"
     transform="translate(0,-247.36217)">
    <path
       style="fill:#020000;fill-opacity:1;stroke:#000000;stroke-width:0;stroke-miterlimit:4;stroke-opacity:1;stroke-dasharray:none"
       d="M 402.5,247.375 C 180.20539,247.375 0,427.58039 0,649.875 0,751.67788 37.801689,844.64912 100.125,915.53125 l -0.0625,-0.125 13.40625,-21.125 C 58.287536,828.98141 25,744.56219 25,652.375 c 0,-207.10678 167.89322,-375 375,-375 207.10678,0 375,167.89322 375,375 0,94.23575 -34.75886,180.34211 -92.15625,246.21875 L 700.4375,920.5 C 765.40379,849.02117 805,754.0756 805,649.875 805,427.58039 624.79461,247.375 402.5,247.375 z M 642.03125,938.8125 C 576.715,994.05384 492.24316,1027.375 400,1027.375 c -91.35457,0 -175.07364,-32.67916 -240.125,-86.96875 l -34.3125,1.53125 c 72.15393,68.4394 169.63791,110.4375 276.9375,110.4375 108.52257,0 207.01617,-42.9539 279.40625,-112.78125 l -39.875,-0.78125 z"
       id="path3037"
       inkscape:connector-curvature="0" />
    <path
       style="fill:#000000;fill-opacity:1;stroke:#000000;stroke-width:0;stroke-linecap:butt;stroke-linejoin:miter;stroke-miterlimit:4;stroke-opacity:1;stroke-dasharray:none"
       d="m 577,442.36218 0,-89 c 0,-10 -11,-22 -23,-22 l -300,0 -23,23 1,260 c 0,6 4,10 10,10 l 318,0 17,-14 0,-94 -30,0 0,75 c 0,7 -4,9 -8,9 l -273,0 c -1,0 -2,-1 -2,-3 l 0,-228 c 0,-3 3,-4 4,-4 l 271,-1 c 4,0 8,4 8,8 l 1,70 z"
       id="path3062"
       inkscape:connector-curvature="0"
       sodipodi:nodetypes="ccccccccccccccccccccc" />
    <path
       style="fill:#000000;fill-opacity:1;stroke:#000000;stroke-width:0;stroke-linecap:butt;stroke-linejoin:miter;stroke-miterlimit:4;stroke-opacity:1;stroke-dasharray:none"
       d="m 272,591.36218 1,-218 43,0 184,185 0,-184 39,1 -2,220 -52,0 -179,-177 -1,0 0,173 z"
       id="path3832"
       inkscape:connector-curvature="0" />
    <path
       style="fill:#000000;fill-opacity:1;stroke:#000000;stroke-width:0;stroke-linecap:butt;stroke-linejoin:miter;stroke-miterlimit:4;stroke-opacity:1;stroke-dasharray:none"
       d="m 196,627.36218 92,7 117,118 8,0 120,-122 82,-3 0,161 -35,0 -1,-130 -23,1 -128,129 -34,0 -132,-129 -32,0 0,129 -34,0 z"
       id="path3834"
       inkscape:connector-curvature="0" />
    <path
       style="fill:#000000;fill-opacity:1;stroke:#000000;stroke-width:0.1;stroke-linecap:butt;stroke-linejoin:miter;stroke-miterlimit:4;stroke-opacity:1;stroke-dasharray:none"
       d="m 608,797.36218 -407,-1 -91,123 0,3 8,10 566,0 c 8,0 8,-20 -1,-32 l -22,-32 -29,2 c -3,1e-5 -6,6.00001 -5,8 10,7 12.46899,14.65086 12,23 l -478,1 0,-1 62,-79 360,-2 26,25 c 16,7 34,0 34,-6 z"
       id="path3836"
       inkscape:connector-curvature="0"
       sodipodi:nodetypes="cccccccccccccccccc" />
    <path
       style="fill:#000000;fill-opacity:1;stroke:#000000;stroke-width:0;stroke-linecap:butt;stroke-linejoin:miter;stroke-miterlimit:4;stroke-opacity:1;stroke-dasharray:none"
       d="m 225,824.36218 26,0 c -2.28353,0.8864 -5,1 -7,5 l -15,25 53,0 13,-25 c 1.26544,-2.52538 -0.29397,-3.79527 -2,-5 l 27,0 c -3.90782,0.61757 -7.39773,3.21074 -10,10 l -23,59 c -0.82471,2.30753 -0.86318,4.52818 2,6 l -32,0 c 1.52903,-1.53204 2.90818,-2.55447 5,-6 l 15,-27 -55,0 -17,26 c -2,3 -2.32999,5.0753 1,7 l -26,0 c 2.96017,-1.59123 5.92335,-3.26375 9,-8 l 37,-61 c 2,-3 1.13706,-4.63661 -1,-6 z"
       id="path3844"
       inkscape:connector-curvature="0"
       sodipodi:nodetypes="ccccccccccccccccccccc" />
    <path
       style="fill:#000000;fill-opacity:1;stroke:#000000;stroke-width:0;stroke-linecap:butt;stroke-linejoin:miter;stroke-miterlimit:4;stroke-opacity:1;stroke-dasharray:none"
       d="m 400,834.36218 0,19 c -11,-10 -23.98952,-12.49969 -41,-13 -17.01048,-0.50031 -26,2 -26,12 0,10 11.9689,9 29,9 17.0311,0 43.36571,0.22433 44,16 0.63429,15.77567 -20.49566,22.72924 -46,23 -25.50434,0.27076 -42,-8 -52,-7 l 0,-18 c 11.30224,6.27892 26.76896,12.72057 47,13 20.23104,0.27943 34.00002,-0.4998 33,-9 -1.00002,-8.5002 -11.26687,-7.77728 -28,-8 -16.73313,-0.22272 -45,-2 -44,-19 1,-17 25.5425,-22.70656 40,-23 14.4575,-0.29344 25.92438,1.88254 39,6 2.58874,0.36617 4.13572,-0.058 5,-1 z"
       id="path3846"
       inkscape:connector-curvature="0"
       sodipodi:nodetypes="cczzzzzcczzzzzcc" />
    <path
       style="fill:#000000;fill-opacity:1;stroke:#000000;stroke-width:0;stroke-linecap:butt;stroke-linejoin:miter;stroke-miterlimit:4;stroke-opacity:1;stroke-dasharray:none"
       d="m 412,829.36218 20,0 c -0.50815,0.43184 -1,1 -1,3 l 0,2 61,38 -18,-38 c -1.46047,-3.11204 -3.31632,-3.55832 -5,-5 l 28,0 c -2.58865,1.87234 -4.10015,4.28326 -3,8 l 18,60 c 0.65841,1.93473 1.99564,3.32806 4,4 l -20,0 c 1.29239,-0.96706 2.84673,-1.32742 2,-4 l -2,-7 -65,-40 0,47 c 0,2 3.11126,2.8933 5,4 l -24,0 c 1.63707,-0.72586 4,-2 4,-4 l 0,-64 c 0,-2 -2.28089,-3.08212 -4,-4 z"
       id="path3848"
       inkscape:connector-curvature="0"
       sodipodi:nodetypes="ccccccccccccccccccccc" />
    <path
       style="fill:#000000;fill-opacity:1;stroke:#000000;stroke-width:0;stroke-linecap:butt;stroke-linejoin:miter;stroke-miterlimit:4;stroke-opacity:1;stroke-dasharray:none"
       d="m 512,830.36218 26,0 c -2.13793,1.3793 -4.0221,2.86769 -3,6 l 13,36 c 1.79013,10.57714 15.95947,17.4482 32,16.875 14.65649,-0.52374 24.07635,-4.29266 17,-16.875 l -23,-38 c -2.20166,-3.43208 -4.64664,-3.62369 -7,-5 l 25,0 c -1.33446,1.31519 -3.66238,2.10752 -2,5 l 24,38 c 9.55262,19.39476 -7.80155,28.80354 -27.875,28.75 -22.72587,-0.0606 -47.56925,-5.44764 -51.125,-23.75 l -17,-41 c -1.9129,-4.58554 -3.97561,-4.93274 -6,-6 z"
       id="path3850"
       inkscape:connector-curvature="0"
       sodipodi:nodetypes="ccccsccccccsccc" />
    <g
       style="font-size:58px;font-style:normal;font-weight:normal;line-height:125%;letter-spacing:0px;word-spacing:0px;fill:#000000;fill-opacity:1;stroke:none;font-family:Sans"
       id="text3852">
      <path
         d="m 121.05993,829.90409 -2.08875,-5.26768 c 4.33341,-1.70577 8.33627,-2.03827 12.00861,-0.9975 3.67238,1.04081 6.77325,3.31445 9.30262,6.82092 2.61775,3.629 4.00793,7.11336 4.17053,10.45308 0.16261,3.33974 -0.72914,6.6136 -2.67527,9.82158 -1.9461,3.20799 -4.52693,5.97174 -7.74251,8.29127 -3.50646,2.52937 -7.0483,4.06576 -10.62552,4.60919 -3.57716,0.5434 -6.93523,0.0674 -10.07422,-1.42799 -3.1389,-1.49541 -5.77977,-3.72839 -7.92261,-6.69895 -2.42993,-3.36868 -3.61583,-6.81997 -3.55772,-10.35387 0.0582,-3.5339 1.31565,-6.87366 3.7723,-10.01929 l 4.19806,3.64138 c -1.88659,2.54818 -2.85311,4.96806 -2.89955,7.25965 -0.0463,2.29159 0.74229,4.56283 2.36591,6.81372 1.86671,2.58775 4.047,4.30326 6.54089,5.14653 2.49397,0.84325 5.04003,0.86321 7.6382,0.0599 2.59822,-0.80334 5.00745,-2.00579 7.22769,-3.60736 2.8634,-2.06548 5.06213,-4.28588 6.59619,-6.66122 1.53409,-2.37533 2.19429,-4.82451 1.98061,-7.34755 -0.21366,-2.52302 -1.06054,-4.81045 -2.54062,-6.86229 -1.80038,-2.49587 -4.0443,-4.08982 -6.73179,-4.78185 -2.68744,-0.692 -5.66846,-0.32255 -8.94305,1.10833 z"
         style="font-size:58px"
         id="path3970" />
      <path
         d="m 113.84755,796.18758 c 2.32078,0.8684 4.19475,1.90464 5.62191,3.10871 1.42719,1.2041 2.62774,2.68031 3.60166,4.42863 1.60791,2.8864 2.1386,5.49759 1.59206,7.83357 -0.54653,2.33599 -1.91663,4.11498 -4.1103,5.33699 -1.2865,0.71667 -2.62476,1.07855 -4.01479,1.08566 -1.39001,0.007 -2.6708,-0.28438 -3.84238,-0.87443 -1.17155,-0.59006 -2.25304,-1.38698 -3.24447,-2.39076 -0.71786,-0.74554 -1.67557,-1.94099 -2.87312,-3.58638 -2.43181,-3.35673 -4.41779,-5.71913 -5.95796,-7.08723 -0.61942,0.32348 -1.01162,0.53115 -1.176586,0.62302 -1.814277,1.01069 -2.858243,2.14335 -3.131901,3.39799 -0.372109,1.69854 0.06661,3.66938 1.316147,5.91252 1.166911,2.0947 2.39527,3.43654 3.68509,4.02555 1.28987,0.589 2.99991,0.60353 5.13013,0.0436 l 1.83187,4.68511 c -2.08428,0.64239 -3.95226,0.8293 -5.60393,0.56072 -1.65163,-0.26859 -3.264491,-1.08828 -4.83859,-2.45907 -1.574037,-1.37079 -2.990451,-3.18601 -4.249246,-5.44564 -1.249537,-2.24314 -2.000915,-4.2127 -2.254136,-5.90869 -0.253148,-1.69598 -0.163529,-3.09665 0.268857,-4.20203 0.43246,-1.10535 1.185433,-2.12994 2.258923,-3.07377 0.676052,-0.57108 2.003682,-1.40791 3.982894,-2.51048 l 5.937728,-3.3077 c 4.13994,-2.30617 6.70549,-3.85961 7.69664,-4.66032 0.99118,-0.80065 1.83363,-1.76162 2.52733,-2.8829 l 2.59103,4.65122 c -0.66637,0.97637 -1.58132,1.87508 -2.74486,2.69611 z m -9.73897,5.91149 c 1.5602,1.24888 3.47162,3.36106 5.73428,6.33655 1.28379,1.68379 2.30194,2.81316 3.05444,3.38811 0.75254,0.57495 1.56116,0.89173 2.42585,0.95033 0.86472,0.0586 1.68468,-0.12801 2.45987,-0.55985 1.18756,-0.66154 1.92681,-1.66227 2.21775,-3.00221 0.29095,-1.33992 -0.0459,-2.87581 -1.01069,-4.60766 -0.95555,-1.71533 -2.18067,-3.03197 -3.67538,-3.94992 -1.49468,-0.91791 -3.0681,-1.32733 -4.72026,-1.22826 -1.27255,0.0822 -2.89021,0.66994 -4.85298,1.7633 z"
         style="font-size:58px"
         id="path3972" />
      <path
         d="m 110.87848,783.28551 -27.929527,11.15874 -1.691674,-4.23414 3.91855,-1.56558 c -1.717761,-0.33026 -3.283757,-1.05662 -4.697993,-2.1791 -1.414171,-1.12248 -2.49253,-2.61295 -3.235079,-4.47142 -0.826537,-2.06884 -1.074707,-3.93675 -0.744509,-5.60371 0.330269,-1.66694 1.158247,-3.08039 2.483936,-4.24034 -4.14365,-0.9062 -6.922982,-3.1301 -8.338003,-6.67171 -1.106725,-2.77014 -1.190761,-5.20682 -0.252109,-7.31005 0.938736,-2.10317 3.003553,-3.79221 6.194459,-5.06713 l 19.171966,-7.65981 1.880804,4.70752 -17.594026,7.02938 c -1.893493,0.75655 -3.195364,1.45459 -3.905616,2.09411 -0.71018,0.63958 -1.158399,1.46418 -1.34466,2.4738 -0.186186,1.00966 -0.06215,2.058 0.372116,3.145 0.784581,1.96368 2.089123,3.33328 3.91363,4.10882 1.824575,0.77557 4.174522,0.58895 7.049849,-0.55986 l 16.226476,-6.483 1.89131,4.73382 -18.1463,7.25003 c -2.103891,0.84059 -3.527723,1.85675 -4.271498,3.04846 -0.743715,1.19174 -0.765345,2.66424 -0.06489,4.4175 0.5324,1.33248 1.375143,2.42405 2.528234,3.27471 1.153147,0.85067 2.506283,1.26053 4.059413,1.22961 1.553179,-0.0309 3.600873,-0.55425 6.143088,-1.56995 l 14.490744,-5.78952 z"
         style="font-size:58px"
         id="path3974" />
      <path
         d="m 105.03496,735.13009 -40.291008,10.36369 -1.157008,-4.49811 3.784996,-0.97358 c -1.753847,-0.67956 -3.172724,-1.5915 -4.256638,-2.73583 -1.083849,-1.14432 -1.87036,-2.6673 -2.359536,-4.56894 -0.639612,-2.48675 -0.564031,-4.84557 0.226743,-7.07645 0.790842,-2.23085 2.227277,-4.13067 4.309309,-5.69947 2.082092,-1.56875 4.512781,-2.71058 7.292077,-3.42551 2.980475,-0.76661 5.801368,-0.92198 8.462686,-0.46611 2.661347,0.45592 4.889624,1.53982 6.684839,3.25169 1.79523,1.71192 2.982092,3.6924 3.560592,5.94144 0.423299,1.64566 0.455674,3.21154 0.09713,4.69763 -0.358542,1.48611 -0.959903,2.78611 -1.804087,3.9 l 14.180019,-3.6474 z m -26.71239,2.10451 c 3.748438,-0.96417 6.323428,-2.43554 7.724975,-4.41412 1.401565,-1.97857 1.82485,-4.04667 1.269856,-6.20432 -0.564387,-2.19418 -1.975612,-3.83427 -4.23368,-4.92027 -2.258045,-1.08597 -5.334424,-1.12806 -9.229147,-0.12628 -3.711831,0.95479 -6.294787,2.43308 -7.748875,4.43489 -1.454031,2.00185 -1.908271,4.06329 -1.362721,6.18434 0.540908,2.10278 2.002285,3.71048 4.384135,4.82309 2.381902,1.11263 5.447051,1.18685 9.195457,0.22267 z"
         style="font-size:58px"
         id="path3976" />
      <path
         d="m 83.27671,687.13648 -4.368814,0.6572 c 3.708889,1.80958 5.86244,4.70272 6.460657,8.67945 0.264004,1.755 0.174391,3.44386 -0.268839,5.06657 -0.443227,1.62274 -1.118134,2.87937 -2.024722,3.7699 -0.906581,0.89054 -2.074875,1.5961 -3.504886,2.1167 -0.958615,0.35422 -2.511459,0.69283 -4.658536,1.01581 l -18.427434,2.77203 -0.758306,-5.04094 16.495074,-2.48135 c 2.632502,-0.396 4.390717,-0.76549 5.274651,-1.10849 1.277843,-0.51679 2.217595,-1.34549 2.819259,-2.48611 0.601677,-1.14059 0.788766,-2.46703 0.561269,-3.97932 -0.227486,-1.51227 -0.82834,-2.87292 -1.802564,-4.08197 -0.974209,-1.209 -2.170201,-1.98849 -3.587978,-2.33847 -1.417755,-0.34994 -3.396206,-0.33394 -5.935361,0.048 l -15.93497,2.39709 -0.758306,-5.04094 29.741543,-4.474 z"
         style="font-size:58px"
         id="path3978" />
      <path
         d="m 72.994203,677.13937 -1.055922,-4.99256 c 2.002584,-0.38863 3.507347,-1.25688 4.514294,-2.60478 1.006958,-1.34787 1.449615,-3.18136 1.327974,-5.50045 -0.122622,-2.33791 -0.689673,-4.04753 -1.701154,-5.12887 -1.01147,-1.0813 -2.158254,-1.58833 -3.440354,-1.5211 -1.150101,0.0603 -2.0289,0.60745 -2.636398,1.64132 -0.415901,0.72136 -0.899976,2.48611 -1.452226,5.29427 -0.746894,3.7826 -1.426612,6.41312 -2.039156,7.89156 -0.612513,1.47846 -1.507297,2.62195 -2.684353,3.43047 -1.17702,0.80853 -2.500856,1.25137 -3.971512,1.3285 -1.338631,0.0702 -2.594369,-0.17115 -3.767218,-0.72408 -1.172798,-0.55293 -2.163985,-1.33754 -2.973564,-2.35383 -0.625988,-0.76122 -1.177528,-1.81467 -1.654623,-3.16035 -0.477032,-1.34566 -0.756604,-2.80095 -0.838716,-4.36587 -0.123584,-2.35677 0.107259,-4.44383 0.69253,-6.26117 0.585331,-1.81732 1.4355,-3.18061 2.550508,-4.08989 1.115065,-0.90924 2.635172,-1.57506 4.560327,-1.99747 l 0.939829,4.94193 c -1.53416,0.30736 -2.706469,1.02584 -3.516929,2.15543 -0.810407,1.12963 -1.163706,2.68429 -1.059896,4.66397 0.122653,2.33795 0.596685,3.98628 1.422097,4.945 0.825464,0.95874 1.756675,1.41091 2.793637,1.35651 0.659923,-0.0346 1.242954,-0.27315 1.749096,-0.71564 0.525039,-0.44347 0.943424,-1.11768 1.255156,-2.02263 0.161862,-0.51894 0.516891,-2.0406 1.065088,-4.56498 0.772704,-3.65159 1.428096,-6.20521 1.96618,-7.66086 0.538117,-1.45562 1.370388,-2.61946 2.496815,-3.49153 1.126456,-0.87203 2.556973,-1.35354 4.291556,-1.44455 1.696894,-0.089 3.320753,0.32214 4.871581,1.23335 1.550838,0.91125 2.785286,2.27864 3.703349,4.10218 0.918065,1.82357 1.438905,3.91374 1.562519,6.27051 0.204707,3.90285 -0.450025,6.91964 -1.964197,9.05037 -1.514167,2.13074 -3.849604,3.56248 -7.006318,4.29524 z"
         style="font-size:58px"
         id="path3980" />
      <path
         d="m 80.962934,628.94478 -41.266149,-4.56225 0.619297,-5.60162 34.79555,-18.09261 -32.399275,-3.58197 0.57884,-5.23567 41.26615,4.56225 -0.619297,5.60162 -34.8237,18.0895 32.427425,3.58508 z"
         style="font-size:58px"
         id="path3982" />
      <path
         d="m 81.426607,565.71505 1.820684,-4.98566 c 2.811404,1.50235 4.79196,3.53933 5.941674,6.11095 1.149707,2.57167 1.331341,5.55906 0.544902,8.9622 -0.990498,4.28614 -3.095747,7.37967 -6.315754,9.28061 -3.220003,1.90095 -7.212208,2.30091 -11.976627,1.19989 -4.929949,-1.13928 -8.462867,-3.29277 -10.598764,-6.4605 -2.135849,-3.16771 -2.73617,-6.77506 -1.800967,-10.82207 0.905498,-3.91819 2.978845,-6.81079 6.220047,-8.6778 3.241242,-1.86694 7.280846,-2.24142 12.118824,-1.12342 0.294334,0.068 0.733698,0.17927 1.318092,0.33366 l -5.050244,21.85374 c 3.261714,0.55999 5.937122,0.21906 8.026232,-1.02279 2.089118,-1.24183 3.416369,-3.08605 3.981758,-5.53265 0.420853,-1.82113 0.301786,-3.48606 -0.357201,-4.99482 -0.658987,-1.50871 -1.949871,-2.88249 -3.872656,-4.12134 z m -11.798147,14.45194 3.781307,-16.36271 c -2.515982,-0.34887 -4.509254,-0.15066 -5.979821,0.59464 -2.278692,1.13992 -3.709243,2.96995 -4.291659,5.4901 -0.527107,2.28105 -0.20687,4.37518 0.960713,6.28242 1.167625,1.90726 3.010776,3.23911 5.52946,3.99555 z"
         style="font-size:58px"
         id="path3984" />
      <path
         d="m 93.055923,544.66217 4.517155,0.64332 c -0.140642,1.4596 -0.380267,2.72991 -0.718876,3.81092 -0.553071,1.76567 -1.261244,3.04749 -2.12452,3.84545 -0.86328,0.79797 -1.811927,1.25264 -2.845944,1.36401 -1.034015,0.11138 -3.010399,-0.29006 -5.929159,-1.20432 l -16.512589,-5.17231 -1.117422,3.56737 -3.783572,-1.18515 1.117423,-3.56736 -7.107711,-2.22638 -1.403462,-5.75183 10.026465,3.14064 1.532224,-4.89162 3.783572,1.18515 -1.532224,4.89161 16.782844,5.25697 c 1.387314,0.43456 2.305962,0.62834 2.755947,0.58132 0.44999,-0.047 0.852762,-0.22749 1.208318,-0.5415 0.355558,-0.31399 0.646208,-0.83133 0.871949,-1.55202 0.169307,-0.5405 0.329167,-1.27192 0.479582,-2.19427 z"
         style="font-size:58px"
         id="path3986" />
      <path
         d="m 100.80549,536.07085 -31.300332,-3.09528 2.029658,-4.86085 17.864051,2.27257 6.645927,0.84155 c -0.26708,-0.19335 -1.974776,-1.46905 -5.123091,-3.82711 l -14.410951,-11.20393 2.018747,-4.83472 17.83333,2.56664 5.883461,0.83008 -4.691744,-3.83114 -14.060023,-11.45637 1.909624,-4.57338 24.131053,20.26505 -2.04057,4.88699 -18.46512,-2.52355 -5.17758,-0.90362 19.00504,14.53395 z"
         style="font-size:58px"
         id="path3988" />
      <path
         d="m 101.46446,497.06236 c -4.850983,-2.73658 -7.683331,-6.11192 -8.49705,-10.12603 -0.669489,-3.34745 -0.0905,-6.64093 1.736963,-9.88044 2.031586,-3.60121 4.871952,-5.87911 8.521107,-6.83368 3.64917,-0.9545 7.55393,-0.25828 11.71428,2.08865 3.37103,1.90173 5.73737,3.90323 7.09905,6.00451 1.36166,2.10134 2.03193,4.41957 2.0108,6.9547 -0.0211,2.53517 -0.67643,4.94561 -1.96586,7.23132 -2.06868,3.66704 -4.91653,5.9678 -8.54356,6.90231 -3.62703,0.93451 -7.65227,0.15407 -12.07573,-2.34134 z m 2.57425,-4.56323 c 3.3546,1.89244 6.27923,2.57767 8.77392,2.05571 2.49468,-0.52194 4.36819,-1.89289 5.62054,-4.11285 1.24305,-2.20349 1.43874,-4.5101 0.58707,-6.91986 -0.85169,-2.4097 -2.99593,-4.58397 -6.43274,-6.5228 -3.23948,-1.82746 -6.10888,-2.47611 -8.60821,-1.94597 -2.49932,0.5302 -4.365869,1.88882 -5.599667,4.07585 -1.252321,2.21997 -1.460872,4.53017 -0.625653,6.93061 0.835251,2.40047 2.93016,4.54691 6.28474,6.43931 z"
         style="font-size:58px"
         id="path3990" />
      <path
         d="m 131.8268,475.01938 -24.89089,-16.88254 2.57531,-3.79691 3.77347,2.5594 c -1.10855,-2.1663 -1.66589,-3.85039 -1.67202,-5.05226 -0.006,-1.20182 0.32468,-2.29493 0.99233,-3.27935 0.96443,-1.42186 2.39787,-2.55984 4.30032,-3.41396 l 2.9285,4.10793 c -1.30884,0.61797 -2.31299,1.44257 -3.01247,2.4738 -0.62527,0.92191 -0.90961,1.93816 -0.85303,3.04874 0.0566,1.11063 0.47111,2.15602 1.24352,3.13618 1.18209,1.48617 2.66376,2.83333 4.44502,4.04148 l 13.03139,8.83869 z"
         style="font-size:58px"
         id="path3992" />
      <path
         d="m 142.84514,458.97446 -32.46486,-25.87938 3.17755,-3.98613 18.51338,14.75795 -2.04652,-17.05997 4.11316,-5.15984 1.55807,15.94626 22.6839,1.89334 -3.91897,4.91623 -18.22107,-1.81264 0.45978,4.96611 9.32313,7.43193 z"
         style="font-size:58px"
         id="path3994" />
      <path
         d="m 134.98327,412.60359 -4.33115,-3.95066 3.43536,-3.76622 4.33115,3.95066 z m 26.34262,24.02842 -22.2207,-20.26861 3.43536,-3.76622 22.2207,20.26861 z"
         style="font-size:58px"
         id="path3996" />
      <path
         d="m 169.96605,427.05599 -20.72498,-21.79567 3.32476,-3.16144 2.94678,3.09901 c -0.67594,-3.91652 0.49797,-7.3124 3.52171,-10.18765 1.3135,-1.24893 2.74537,-2.16105 4.29562,-2.73636 1.55026,-0.57523 2.96331,-0.73997 4.23916,-0.49421 1.27585,0.24584 2.52411,0.79142 3.7448,1.63675 0.78732,0.55404 1.99411,1.68618 3.62037,3.39641 l 12.74333,13.40167 -3.69418,3.51271 -12.60672,-13.25801 c -1.43111,-1.505 -2.64485,-2.49375 -3.64122,-2.96625 -0.99637,-0.47243 -2.07197,-0.58298 -3.22679,-0.33165 -1.15482,0.2514 -2.22478,0.84544 -3.2099,1.78213 -1.57344,1.49619 -2.45653,3.28683 -2.64926,5.37194 -0.19272,2.08516 1.03794,4.5233 3.69198,7.31444 l 11.31873,11.90347 z"
         style="font-size:58px"
         id="path3998" />
      <path
         d="m 194.42531,407.62675 4.36712,-2.45618 c 1.10151,1.08099 2.2393,1.60812 3.41338,1.5814 1.5781,-0.0295 3.23236,-0.71555 4.96277,-2.05804 1.86464,-1.44664 3.01482,-2.93638 3.45055,-4.46923 0.4357,-1.53283 0.31177,-3.1094 -0.37179,-4.72972 -0.4277,-0.98246 -1.66744,-2.78062 -3.71921,-5.39449 -0.15158,3.43914 -1.54008,6.17714 -4.1655,8.21401 -3.26688,2.53453 -6.70963,3.31772 -10.32825,2.34957 -3.61863,-0.96813 -6.70678,-3.10055 -9.26446,-6.39727 -1.75911,-2.26741 -2.97202,-4.67781 -3.63874,-7.23121 -0.66669,-2.55337 -0.62568,-4.95686 0.12304,-7.21049 0.74874,-2.25358 2.17476,-4.19629 4.27809,-5.82813 2.80444,-2.17573 5.99617,-2.83586 9.57519,-1.9804 l -2.22205,-2.86411 3.7144,-2.88172 15.93626,20.54103 c 2.87012,3.69949 4.52745,6.61341 4.97197,8.74178 0.44448,2.12839 0.19721,4.27372 -0.74181,6.43601 -0.93907,2.1623 -2.60197,4.1693 -4.98871,6.02101 -2.83429,2.1989 -5.61883,3.33767 -8.35364,3.41631 -2.73483,0.0786 -5.0677,-1.18807 -6.99861,-3.80013 z m -7.74153,-16.86239 c 2.41879,3.11771 4.80277,4.9123 7.15192,5.38377 2.34915,0.47149 4.45606,-0.0161 6.32072,-1.46275 1.84972,-1.43506 2.8485,-3.35096 2.99632,-5.74772 0.14779,-2.39672 -0.95876,-5.11665 -3.31968,-8.15979 -2.25678,-2.90883 -4.6032,-4.60112 -7.03928,-5.07688 -2.43609,-0.4757 -4.56408,-0.008 -6.38398,1.4043 -1.79007,1.38881 -2.74743,3.29649 -2.8721,5.72304 -0.12466,2.4266 0.92404,5.07194 3.14608,7.93603 z"
         style="font-size:58px"
         id="path4000" />
    </g>
    <g
       style="font-size:40px;font-style:normal;font-weight:normal;line-height:125%;letter-spacing:0px;word-spacing:0px;fill:#000000;fill-opacity:1;stroke:none;font-family:Sans"
       id="text3856">
      <path
         d="m 608.42625,408.21544 29.06978,-29.64215 5.90417,5.79017 -13.56659,27.86887 c -1.26982,2.5891 -2.23235,4.51434 -2.88758,5.77573 1.39454,-0.74791 3.47355,-1.81622 6.23703,-3.20495 l 27.32304,-13.66405 5.27735,5.17545 -29.06978,29.64215 -3.78109,-3.70808 24.33057,-24.80963 -32.94418,16.36234 -3.53846,-3.47013 16.17382,-33.64188 -24.74699,25.23425 z"
         style="font-size:58px"
         id="path3941" />
      <path
         d="m 656.99169,455.55293 c -2.42944,-0.48782 -4.44449,-1.21247 -6.04515,-2.17396 -1.60069,-0.96151 -3.02096,-2.22774 -4.26083,-3.79869 -2.04696,-2.59359 -2.98661,-5.08697 -2.81897,-7.48017 0.16764,-2.39321 1.23701,-4.36765 3.20814,-5.92334 1.15598,-0.91235 2.41955,-1.48269 3.79072,-1.71102 1.37115,-0.22832 2.68201,-0.14448 3.93259,0.25151 1.25055,0.396 2.44512,1.01056 3.58373,1.84369 0.8274,0.62173 1.96322,1.64946 3.40748,3.08318 2.93522,2.92673 5.27201,4.94281 7.01035,6.04823 0.56002,-0.41797 0.91415,-0.68544 1.06238,-0.8024 1.63022,-1.28666 2.48053,-2.57109 2.55094,-3.85329 0.0969,-1.73612 -0.64998,-3.61197 -2.24072,-5.62755 -1.48554,-1.88219 -2.91187,-3.01134 -4.27902,-3.38748 -1.36719,-0.37611 -3.05773,-0.1182 -5.07163,0.77375 l -2.55444,-4.33368 c 1.95541,-0.96605 3.7698,-1.44798 5.44317,-1.4458 1.67333,0.002 3.39612,0.55464 5.16839,1.65732 1.77221,1.1027 3.45957,2.66924 5.06207,4.69963 1.59074,2.01559 2.64612,3.84039 3.16614,5.47443 0.51994,1.63403 0.65448,3.03111 0.4036,4.19123 -0.25095,1.16011 -0.83119,2.29151 -1.74072,3.39422 -0.5765,0.67143 -1.75396,1.70896 -3.53238,3.1126 l -5.33535,4.21088 c -3.71995,2.9359 -6.00543,4.87799 -6.85646,5.82629 -0.85106,0.94826 -1.52976,2.0311 -2.03609,3.24852 l -3.29852,-4.17936 c 0.50241,-1.07001 1.2626,-2.10293 2.28058,-3.09874 z m 8.67354,-7.38668 c -1.73914,-0.98454 -3.96247,-2.76544 -6.67001,-5.34273 -1.5355,-1.45792 -2.72048,-2.41078 -3.55492,-2.85858 -0.83448,-0.4478 -1.68322,-0.63179 -2.54621,-0.55197 -0.86303,0.0798 -1.64281,0.39461 -2.33936,0.94436 -1.06708,0.84217 -1.63756,1.94784 -1.71145,3.31701 -0.0739,1.36916 0.50322,2.83181 1.7314,4.38796 1.21647,1.54132 2.63559,2.6461 4.25738,3.31436 1.62177,0.66823 3.2403,0.82192 4.85561,0.46105 1.24324,-0.28373 2.74668,-1.12155 4.51033,-2.51347 z"
         style="font-size:58px"
         id="path3943" />
      <path
         d="m 661.6201,468.03768 25.3937,-16.11632 2.45843,3.87362 -3.6106,2.29149 c 3.9733,0.0946 7.07788,1.90337 9.31376,5.42629 0.97119,1.53031 1.58904,3.11161 1.85353,4.74388 0.26442,1.63226 0.15265,3.05049 -0.33532,4.25468 -0.48805,1.20417 -1.26483,2.32329 -2.33037,3.35736 -0.6959,0.66524 -2.04014,1.63018 -4.03271,2.89481 l -15.61402,9.90956 -2.73158,-4.30402 15.44664,-9.80333 c 1.75346,-1.11287 2.95837,-2.11237 3.61472,-2.99849 0.65628,-0.88614 0.97285,-1.92002 0.9497,-3.10165 -0.0232,-1.18164 -0.39901,-2.34633 -1.1274,-3.49406 -1.16348,-1.83319 -2.74943,-3.04605 -4.75785,-3.63857 -2.00847,-0.59252 -4.63865,0.14315 -7.89055,2.20701 l -13.86851,8.80175 z"
         style="font-size:58px"
         id="path3945" />
      <path
         d="m 690.67264,511.42028 c -2.27887,-0.97308 -4.10376,-2.0935 -5.47466,-3.36125 -1.37093,-1.26778 -2.50308,-2.79708 -3.39646,-4.5879 -1.47493,-2.95656 -1.88627,-5.58919 -1.23402,-7.89789 0.65224,-2.3087 2.10185,-4.02353 4.34884,-5.14447 1.31777,-0.6574 2.67111,-0.95802 4.06003,-0.90188 1.38888,0.0561 2.65509,0.40559 3.79861,1.04833 1.1435,0.64274 2.18761,1.48804 3.13235,2.53589 0.6832,0.77741 1.58553,2.0152 2.70699,3.71337 2.27657,3.46388 4.15303,5.9142 5.62936,7.35094 0.6335,-0.29496 1.03474,-0.48457 1.20371,-0.56884 1.85838,-0.92711 2.95279,-2.01111 3.28325,-3.25199 0.449,-1.67985 0.1004,-3.66861 -1.0458,-5.96627 -1.07041,-2.14562 -2.23645,-3.54197 -3.49814,-4.18904 -1.26174,-0.64707 -2.96935,-0.73938 -5.12283,-0.27695 l -1.61683,-4.76359 c 2.11134,-0.54691 3.98589,-0.64864 5.62364,-0.3052 1.6377,0.34345 3.2116,1.23567 4.7217,2.67665 1.51005,1.44099 2.84241,3.31876 3.9971,5.63332 1.1462,2.29767 1.8072,4.29937 1.983,6.00512 0.17573,1.70574 0.0225,3.10088 -0.45975,4.18544 -0.4823,1.08454 -1.2811,2.07382 -2.39642,2.96783 -0.70133,0.53973 -2.06566,1.31529 -4.09298,2.32669 l -6.08207,3.03413 c -4.24057,2.11545 -6.87413,3.55056 -7.90068,4.30535 -1.02658,0.75473 -1.91187,1.67638 -2.65587,2.76494 l -2.37674,-4.76428 c 0.7101,-0.94505 1.66499,-1.8012 2.86467,-2.56845 z m 9.99783,-5.46231 c -1.50177,-1.31855 -3.31513,-3.51551 -5.44008,-6.59085 -1.20585,-1.74046 -2.17156,-2.91498 -2.89714,-3.52357 -0.7256,-0.60859 -1.51897,-0.96182 -2.3801,-1.0597 -0.86116,-0.0979 -1.68875,0.0512 -2.48279,0.44736 -1.21642,0.60682 -2.00043,1.57289 -2.35203,2.8982 -0.35162,1.32531 -0.0849,2.87493 0.80002,4.64887 0.87652,1.75703 2.04048,3.12804 3.49188,4.11304 1.45137,0.98497 3.00453,1.46554 4.65949,1.44173 1.27497,-0.0242 2.9177,-0.53775 4.92818,-1.54069 z"
         style="font-size:58px"
         id="path3947" />
      <path
         d="m 689.99315,524.59126 1.05767,4.89755 c -1.35796,0.73334 -2.19746,1.66484 -2.51849,2.79449 -0.43759,1.51651 -0.27045,3.29955 0.50145,5.34913 0.83179,2.20857 1.91564,3.74724 3.25157,4.61602 1.33592,0.86873 2.87882,1.21569 4.62871,1.04088 1.06494,-0.11865 3.14892,-0.77237 6.25196,-1.96118 -3.24116,-1.15997 -5.44731,-3.2948 -6.61846,-6.40447 -1.45729,-3.86945 -1.18937,-7.38998 0.80378,-10.5616 1.99313,-3.17162 4.94209,-5.49272 8.84688,-6.96332 2.68562,-1.01145 5.34665,-1.45882 7.98308,-1.34213 2.63639,0.11671 4.92068,0.86535 6.85289,2.24592 1.93215,1.38058 3.36737,3.31651 4.30566,5.8078 1.25097,3.32171 0.93956,6.56608 -0.93422,9.73312 l 3.39239,-1.27762 1.65691,4.3995 -24.32979,9.16295 c -4.38184,1.65024 -7.65513,2.3736 -9.81988,2.17007 -2.16475,-0.20358 -4.14151,-1.07308 -5.93028,-2.60852 -1.78876,-1.53549 -3.21548,-3.71671 -4.28017,-6.54368 -1.26431,-3.35707 -1.53041,-6.35368 -0.79829,-8.98985 0.73213,-2.63619 2.631,-4.4912 5.69663,-5.56506 z m 18.39617,-2.4192 c -3.69277,1.39074 -6.11109,3.13877 -7.25497,5.24409 -1.14389,2.1053 -1.29994,4.26225 -0.46815,6.47085 0.82512,2.1909 2.36085,3.7107 4.60718,4.5594 2.2463,0.84867 5.17167,0.59428 8.7761,-0.76318 3.44537,-1.2976 5.75486,-3.03995 6.9285,-5.22705 1.17357,-2.18713 1.35446,-4.35847 0.54267,-6.51405 -0.79854,-2.12024 -2.33863,-3.59805 -4.62026,-4.43343 -2.28168,-0.83538 -5.1187,-0.61425 -8.51107,0.66337 z"
         style="font-size:58px"
         id="path3949" />
      <path
         d="m 718.28673,572.38336 0.71414,5.25943 c -3.18759,-0.0181 -5.88948,-0.89654 -8.10568,-2.63537 -2.21621,-1.73888 -3.76989,-4.29693 -4.66104,-7.67415 -1.12237,-4.25351 -0.7025,-7.97181 1.25963,-11.1549 1.96211,-3.18311 5.30724,-5.39846 10.03539,-6.64607 4.89242,-1.29097 9.0219,-1.03329 12.38847,0.77303 3.36652,1.80632 5.57966,4.71756 6.63944,8.73375 1.026,3.88838 0.54065,7.41404 -1.45605,10.577 -1.99676,3.16293 -5.3957,5.37784 -10.19683,6.64474 -0.29211,0.077 -0.73265,0.18353 -1.32162,0.31945 l -5.72263,-21.68738 c -3.14653,1.02553 -5.35431,2.57465 -6.62333,4.64737 -1.26904,2.0727 -1.58322,4.32304 -0.94255,6.75101 0.47688,1.80727 1.35855,3.2246 2.64504,4.25201 1.28646,1.02737 3.06899,1.64073 5.34762,1.84008 z m 3.69816,-18.28602 4.28476,16.23815 c 2.38839,-0.86457 4.05927,-1.96936 5.01265,-3.31439 1.48427,-2.07094 1.89645,-4.3569 1.23654,-6.85787 -0.59734,-2.26368 -1.85711,-3.96689 -3.77932,-5.10965 -1.92226,-1.14277 -4.1738,-1.46151 -6.75463,-0.95624 z"
         style="font-size:58px"
         id="path3951" />
      <path
         d="m 711.93954,586.21254 29.81942,-3.92154 0.59451,4.52065 -4.18371,0.5502 c 1.58314,0.74393 2.92147,1.83427 4.01497,3.27102 1.09345,1.43674 1.77066,3.14722 2.03164,5.13145 0.29045,2.20883 0.07,4.08021 -0.66134,5.61414 -0.7314,1.53389 -1.88256,2.6993 -3.4535,3.49625 3.79189,1.90069 5.93648,4.74167 6.43379,8.52294 0.38891,2.95757 -0.13094,5.33963 -1.55958,7.14619 -1.4287,1.80648 -3.84646,2.93375 -7.2533,3.38183 l -20.46926,2.6919 -0.66097,-5.02606 18.78455,-2.47035 c 2.02163,-0.2659 3.45549,-0.62109 4.30159,-1.06557 0.84605,-0.44455 1.48389,-1.13304 1.91353,-2.06547 0.42958,-0.9325 0.56807,-1.97902 0.41548,-3.13957 -0.27575,-2.09656 -1.20197,-3.74573 -2.77868,-4.94751 -1.57676,-1.20183 -3.90008,-1.60088 -6.96998,-1.19713 l -17.32447,2.27833 -0.66466,-5.05414 19.3742,-2.54789 c 2.24625,-0.29542 3.87681,-0.9288 4.89166,-1.90012 1.0148,-0.97136 1.39912,-2.39298 1.15298,-4.26487 -0.18712,-1.42265 -0.73444,-2.68843 -1.64195,-3.79733 -0.90757,-1.10891 -2.11772,-1.84002 -3.63045,-2.19331 -1.51278,-0.3533 -3.62628,-0.35148 -6.34052,0.005 l -15.47128,2.03462 z"
         style="font-size:58px"
         id="path3953" />
      <path
         d="m 727.01696,654.84513 -0.63212,5.26993 c -3.08049,-0.81951 -5.47444,-2.34952 -7.18185,-4.59001 -1.70742,-2.24055 -2.5675,-5.10721 -2.58026,-8.60001 -0.0161,-4.39907 1.32583,-7.89211 4.02571,-10.47913 2.69988,-2.58703 6.49478,-3.88947 11.38473,-3.90733 5.05984,-0.0185 8.99166,1.26989 11.79545,3.86514 2.80374,2.59524 4.21321,5.96966 4.22841,10.12329 0.0147,4.02144 -1.34214,7.31157 -4.07042,9.87041 -2.72832,2.55878 -6.5752,3.84725 -11.54064,3.86542 -0.3021,0.001 -0.75525,-0.007 -1.35947,-0.0233 l -0.0819,-22.42954 c -3.30334,0.20086 -5.82985,1.14466 -7.57955,2.83141 -1.74972,1.68673 -2.61998,3.78563 -2.61081,6.29669 0.007,1.86911 0.50353,3.46268 1.49013,4.78072 0.98659,1.318 2.55746,2.36012 4.71262,3.12636 z m 8.18002,-16.76729 0.0613,16.79383 c 2.52908,-0.23582 4.42418,-0.88468 5.68531,-1.94656 1.95757,-1.63088 2.93164,-3.73959 2.92222,-6.32615 -0.009,-2.34114 -0.79929,-4.30652 -2.37214,-5.89616 -1.5729,-1.58965 -3.67181,-2.46463 -6.29674,-2.62496 z"
         style="font-size:58px"
         id="path3955" />
      <path
         d="m 716.9849,666.58628 29.93098,2.95165 -0.45025,4.56574 -4.25572,-0.41968 c 3.07127,2.52257 4.40217,5.86004 3.99272,10.01244 -0.17791,1.80373 -0.66554,3.4299 -1.46289,4.87852 -0.79741,1.44857 -1.75925,2.49677 -2.88553,3.1446 -1.12632,0.64777 -2.42767,1.05064 -3.90406,1.20863 -0.958,0.0952 -2.61131,0.027 -4.95992,-0.20455 l -18.40389,-1.8149 0.50028,-5.07305 18.2066,1.79545 c 2.06678,0.20379 3.63164,0.1589 4.69457,-0.13466 1.06289,-0.29361 1.94924,-0.9129 2.65904,-1.85788 0.70975,-0.94501 1.13134,-2.09392 1.26477,-3.44671 0.21306,-2.16076 -0.28885,-4.0932 -1.50571,-5.79734 -1.21691,-1.70416 -3.74183,-2.74522 -7.57478,-3.1232 l -16.34649,-1.61201 z"
         style="font-size:58px"
         id="path3957" />
      <path
         d="m 715.77176,710.39882 -4.56236,-0.0584 c -0.0478,-1.46559 0.0269,-2.75614 0.22395,-3.87166 0.32194,-1.82204 0.85979,-3.18413 1.61354,-4.08626 0.75376,-0.90215 1.63622,-1.47479 2.6474,-1.71791 1.01118,-0.24314 3.02273,-0.0986 6.03468,0.43358 l 17.03976,3.01079 0.65045,-3.68125 3.90436,0.68987 -0.65045,3.68126 7.33463,1.29597 2.12989,5.52419 -10.34657,-1.82815 -0.8919,5.04778 -3.90436,-0.68987 0.8919,-5.04779 -17.31865,-3.06007 c -1.4316,-0.25296 -2.36752,-0.32726 -2.80775,-0.2229 -0.44024,0.10435 -0.81653,0.33504 -1.12885,0.69207 -0.31233,0.35702 -0.5342,0.90737 -0.6656,1.65108 -0.0985,0.55775 -0.16324,1.30364 -0.19407,2.23767 z"
         style="font-size:58px"
         id="path3959" />
      <path
         d="m 711.20437,763.52212 -3.03735,4.78391 c -3.9253,-2.506 -6.54494,-5.55083 -7.85891,-9.13451 -1.31396,-3.58374 -1.29443,-7.42879 0.0586,-11.53517 1.40031,-4.24988 3.40437,-7.42116 6.01219,-9.51387 2.60783,-2.09273 5.78146,-3.29333 9.52091,-3.6018 3.73942,-0.30849 7.49199,0.15765 11.2577,1.39843 4.10638,1.35302 7.42978,3.31775 9.97021,5.89419 2.54036,2.57641 4.12694,5.57407 4.75974,8.99298 0.63273,3.41887 0.37599,6.86771 -0.77021,10.34653 -1.29989,3.94498 -3.39713,6.9315 -6.29174,8.95958 -2.89466,2.028 -6.33636,2.9713 -10.32511,2.82992 l 0.48236,-5.53631 c 3.17042,0.0308 5.6967,-0.60784 7.57887,-1.91588 1.88212,-1.30812 3.25746,-3.28015 4.12603,-5.9161 0.99849,-3.03052 1.10682,-5.80269 0.32497,-8.31651 -0.78191,-2.51388 -2.2608,-4.58649 -4.43669,-6.21783 -2.17594,-1.63139 -4.56395,-2.87543 -7.16406,-3.73214 -3.35328,-1.10489 -6.44166,-1.58079 -9.26516,-1.42772 -2.82351,0.15305 -5.19365,1.05682 -7.11041,2.71132 -1.91677,1.65447 -3.27102,3.68315 -4.06275,6.08604 -0.96307,2.92288 -0.93564,5.67517 0.0823,8.25689 1.01795,2.58167 3.06745,4.77768 6.14852,6.58805 z"
         style="font-size:58px"
         id="path3961" />
      <path
         d="m 692.8703,769.59143 38.14749,16.3853 -2.01183,4.68387 -38.1475,-16.3853 z"
         style="font-size:58px"
         id="path3963" />
      <path
         d="m 678.72885,799.10594 3.92343,2.03107 c -1.94172,-3.64146 -1.98819,-7.24783 -0.13942,-10.81913 0.8159,-1.57609 1.87935,-2.89114 3.19035,-3.94515 1.31101,-1.05402 2.59482,-1.67565 3.85146,-1.86489 1.25664,-0.18925 2.61668,-0.0752 4.08013,0.34229 0.98411,0.27558 2.44026,0.91246 4.36844,1.91064 l 16.5488,8.56691 -2.34353,4.52703 -14.81344,-7.66856 c -2.36412,-1.22386 -4.0047,-1.95621 -4.92174,-2.19708 -1.338,-0.33123 -2.58521,-0.21153 -3.74165,0.35913 -1.15644,0.57063 -2.08619,1.535 -2.78925,2.89312 -0.70306,1.35809 -1.01481,2.81247 -0.93525,4.36314 0.0796,1.55063 0.59072,2.88356 1.53349,3.9988 0.94277,1.1152 2.5543,2.26303 4.83458,3.4435 l 14.31043,7.40817 -2.34353,4.52702 -26.70945,-13.82683 z"
         style="font-size:58px"
         id="path3965" />
      <path
         d="m 670.0169,814.02993 2.59194,-3.956 34.72752,22.75321 -2.79371,4.26396 -12.38915,-8.11728 c 1.07873,3.27994 0.70239,6.31755 -1.12902,9.11283 -1.01403,1.54763 -2.28562,2.80802 -3.81478,3.78118 -1.52918,0.97309 -3.15064,1.53588 -4.8644,1.68837 -1.71377,0.15242 -3.53373,-0.0412 -5.45986,-0.58086 -1.92614,-0.53973 -3.79727,-1.40453 -5.6134,-2.59441 -4.31133,-2.82478 -6.9451,-6.074 -7.90132,-9.74766 -0.9562,-3.67371 -0.45651,-7.00294 1.49907,-9.98769 1.94526,-2.96898 4.71115,-4.48612 8.29769,-4.55141 z m 12.79921,8.31823 c -3.01636,-1.9763 -5.46474,-2.99359 -7.34514,-3.05188 -3.07464,-0.0959 -5.36212,1.00111 -6.86245,3.29102 -1.22095,1.86349 -1.46699,4.0046 -0.73812,6.42334 0.72888,2.4187 2.69624,4.67829 5.9021,6.77877 3.28482,2.15216 6.13577,3.089 8.55286,2.81052 2.41707,-0.27855 4.23091,-1.34166 5.44153,-3.18934 1.22094,-1.86354 1.46698,-4.00465 0.73812,-6.42335 -0.72889,-2.41874 -2.62519,-4.63176 -5.6889,-6.63908 z"
         style="font-size:58px"
         id="path3967" />
    </g>
    <path
       inkscape:connector-curvature="0"
       style="fill:#020000;fill-opacity:1;stroke:#000000;stroke-width:0;stroke-miterlimit:4;stroke-opacity:1;stroke-dasharray:none"
       d="m 402.5,247.36217 c -222.29461,0 -402.5,180.20539 -402.5,402.5 0,101.80288 37.80169,194.77412 100.125,265.65625 l -0.0625,-0.125 13.40625,-21.125 C 58.28754,828.96858 24.999999,744.54936 24.999999,652.36217 c 0,-207.10678 167.893221,-375 375.000001,-375 207.1068,0 375,167.89322 375,375 0,94.23575 -34.7589,180.34211 -92.1562,246.21875 l 17.5937,21.90625 C 765.4038,849.00834 805,754.06277 805,649.86217 c 0,-222.29461 -180.2054,-402.5 -402.5,-402.5 z m 239.5313,691.4375 C 576.715,994.04098 492.24316,1027.3622 400,1027.3622 c -91.35457,0 -175.07364,-32.67922 -240.125,-86.96878 l -34.3125,1.53125 c 72.15393,68.43943 169.63791,110.43753 276.9375,110.43753 108.52257,0 207.0162,-42.9539 279.4063,-112.78128 l -39.875,-0.78125 z"
       id="path3037-7" />
    <text
       xml:space="preserve"
       style="font-size:40px;font-style:normal;font-weight:normal;line-height:125%;letter-spacing:0px;word-spacing:0px;fill:#000000;fill-opacity:1;stroke:none;font-family:Sans"
       x="-141.42136"
       y="652.3418"
       id="text3892"
       sodipodi:linespacing="125%"><tspan
         sodipodi:role="line"
         id="tspan3894"
         x="-141.42136"
         y="652.3418" /></text>
  </g>
</svg>
