<?xml version="1.0" encoding="UTF-8" standalone="no"?>
<!-- Created with Inkscape (http://www.inkscape.org/) -->

<svg
   xmlns:dc="http://purl.org/dc/elements/1.1/"
   xmlns:cc="http://creativecommons.org/ns#"
   xmlns:rdf="http://www.w3.org/1999/02/22-rdf-syntax-ns#"
   xmlns:svg="http://www.w3.org/2000/svg"
   xmlns="http://www.w3.org/2000/svg"
   xmlns:sodipodi="http://sodipodi.sourceforge.net/DTD/sodipodi-0.dtd"
   xmlns:inkscape="http://www.inkscape.org/namespaces/inkscape"
   width="410.21875"
   height="59.84375"
   id="svg5495"
   version="1.1"
   inkscape:version="0.48.4 r9939"
   sodipodi:docname="CNMC.svg">
  <defs
     id="defs5497" />
  <sodipodi:namedview
     id="base"
     pagecolor="#ffffff"
     bordercolor="#666666"
     borderopacity="1.0"
     inkscape:pageopacity="0.0"
     inkscape:pageshadow="2"
     inkscape:zoom="1"
     inkscape:cx="487.65281"
     inkscape:cy="-108.76244"
     inkscape:document-units="px"
     inkscape:current-layer="layer1"
     showgrid="false"
     showborder="true"
     inkscape:window-width="1440"
     inkscape:window-height="868"
     inkscape:window-x="1020"
     inkscape:window-y="-4"
     inkscape:window-maximized="1"
     fit-margin-top="0"
     fit-margin-left="0"
     fit-margin-right="0"
     fit-margin-bottom="0" />
  <metadata
     id="metadata5500">
    <rdf:RDF>
      <cc:Work
         rdf:about="">
        <dc:format>image/svg+xml</dc:format>
        <dc:type
           rdf:resource="http://purl.org/dc/dcmitype/StillImage" />
      </cc:Work>
    </rdf:RDF>
  </metadata>
  <g
     inkscape:label="Layer 1"
     inkscape:groupmode="layer"
     id="layer1"
     transform="translate(-146.3125,-215.8125)">
    <path
       style="fill:#000000;fill-opacity:1;stroke:#000000;stroke-width:0;stroke-linecap:butt;stroke-linejoin:miter;stroke-miterlimit:4;stroke-opacity:1;stroke-dasharray:none"
       d="m 279.09506,223.28125 -11.83602,17.90015 3.4339,2.33798 4.23759,-6.5025 0,32.00109 4.0184,0 0,-28.78637 12.49358,0 0,24.98715 -4.31065,0 0,3.79922 8.32905,0 0,-28.78637 5.18739,0 0,-3.72616 -5.18739,0 0,-12.12826 -4.0184,0 0,12.12826 -12.49358,0 0,-5.5527 3.58003,-5.40657 -3.4339,-2.26492 z m -124.2782,0.21919 -2.19186,6.57556 0,37.99216 16.6581,0 0,-19.94588 -12.6397,0 0,-3.21472 12.6397,0 0,-14.83156 -12.6397,0 2.19186,-6.57556 -4.0184,0 z m 262.94958,0.14612 c -1.45071,3.38516 -4.94772,7.57797 -8.10986,10.74009 l 2.55716,3.28778 -0.80368,0 0,9.05967 4.0184,0 0,-5.84494 33.17008,0 0,5.84494 4.0184,0 0,-9.05967 -18.92302,0 0,-2.4841 -0.21918,0 c 1.10243,-1.31909 2.06544,-2.6155 2.84941,-3.94534 l 3.50697,0 1.5343,4.38371 4.38371,0 -1.5343,-4.38371 9.35192,0 0,-3.21472 -15.63524,0 c 0.64666,-1.36398 1.28311,-2.77471 1.97267,-4.38371 l -4.45677,0 c -1.74437,4.36547 -2.89182,7.20261 -6.50251,10.81315 l 0.73062,0.94981 0,2.26491 -17.16953,0 c 2.40459,-2.40999 4.18059,-4.25161 5.69882,-6.42944 l 2.70329,0 1.5343,4.38371 4.45677,0 -1.60736,-4.38371 5.99107,0 0,-3.21472 -11.17846,0 c 0.68026,-1.26695 1.39659,-2.6985 2.11879,-4.38371 l -4.45677,0 z m -194.63676,0.73062 0,10.66703 -18.48465,0 0,4.45677 18.33853,0 c -0.93351,12.87712 -6.32166,20.70269 -19.43445,25.64471 l 1.46123,3.87228 c 10.45895,-3.90723 17.54941,-10.25777 20.74957,-20.23814 2.90873,6.47504 8.79905,12.98198 20.23813,19.21527 l 1.97267,-3.65309 c -12.68178,-6.858 -18.99012,-13.18807 -19.94588,-24.84103 l 18.99608,0 0,-4.45677 -19.28833,0 0,-10.66703 -4.6029,0 z m 32.95089,0 0,10.81315 0,4.23759 0,19.94588 0,4.23759 0,5.40658 4.01841,0 0,-6.64863 c 4.90933,-2.29333 8.32905,-7.23932 8.32905,-13.00501 0,-3.82751 -1.57346,-7.2295 -4.0184,-9.79029 l 10.00947,-15.19686 -18.33853,0 z m 70.2855,0 0,9.27885 -17.02341,0 0,20.6765 17.02341,0 0,14.90462 4.0184,0 0,-14.90462 17.53485,0 0,-20.6765 -17.53485,0 0,-9.27885 -4.0184,0 z m 39.89177,0 -9.27885,17.31566 8.54823,0 -10.1556,12.63969 18.55771,0 0,-6.94087 -3.72615,0 0,3.14166 -7.01394,0 10.1556,-12.56664 -10.08254,0 7.23313,-13.5895 -4.23759,0 z m 150.5074,0 -9.27885,17.31566 8.54824,0 -10.1556,12.63969 18.55771,0 0,-6.94087 -3.72616,0 0,3.14166 -7.01393,0 10.15559,-12.56664 -10.08253,0 7.23312,-13.5895 -4.23759,0 z m -140.9363,1.02286 0,43.83711 3.65309,0 0,-40.25708 18.1924,0 0,37.18848 -3.4339,0 0,3.0686 7.087,0 0,-43.83711 -25.49859,0 z m 100.31392,0.5845 0,37.40766 -4.16453,0 0,4.38371 8.76742,0 0,-41.79137 -4.60289,0 z m 53.18902,0 0,37.84603 -4.82208,0 0,3.79922 4.82208,0 17.90015,0 3.79922,0 0,-3.79922 -3.79922,0 0,-37.84603 -17.90015,0 z m -358.44142,0.80368 0,3.87228 10.88622,0 0,7.37924 -8.84049,0 0,26.66758 3.94534,0 0,-22.86836 4.89515,0 0,27.03288 3.94534,0 0,-27.03288 5.47964,0 0,22.86836 4.0184,0 0,-26.66758 -9.49804,0 0,-7.37924 8.10986,0 0,-3.87228 -22.94142,0 z m 89.20852,1.75348 6.57556,0 -5.47964,8.40212 -1.09592,1.60736 0,-2.1188 0,-7.89068 z m 273.2513,1.24205 9.86335,0 0,7.6715 -9.86335,0 0,-7.6715 z m -149.99597,1.89961 2.4841,7.59843 -3.79921,0 0,3.21473 4.82208,0 0,4.60289 -4.82208,0 0,10.08254 c 0,1.74436 1.45209,3.21472 3.43391,3.21472 l 9.64416,0 0,-3.21472 -8.25599,0 c -1.06497,0 -1.38817,-0.35982 -1.38817,-1.46124 l 0,-5.40658 9.64416,0 0,-3.21472 -4.82208,0 0,-4.60289 4.82208,0 0,-3.21473 -3.79922,0 2.48411,-7.59843 -3.43391,0 -1.82655,5.5527 -1.75348,-5.5527 -3.43391,0 z m 107.91235,1.97267 -4.45677,2.26492 10.22866,20.6765 4.45677,-2.26492 -10.22866,-20.6765 z m -334.62326,0.21919 8.6213,0 0,7.23312 -8.6213,0 0,-7.23312 z m 308.39406,0.36531 -8.18293,23.52591 4.52983,1.60736 8.25599,-23.52591 -4.60289,-1.60736 z m -151.6764,3.21472 13.00501,0 0,13.07807 -13.00501,0 0,-13.07807 z m 17.02341,0 13.51644,0 0,13.07807 -13.51644,0 0,-13.07807 z m -70.28549,3.79921 c 0.13911,0.10288 0.30487,0.18237 0.43837,0.29225 0.0519,0.0421 0.0951,0.10404 0.14612,0.14613 0.15407,0.13794 0.29276,0.29107 0.43837,0.43837 0.25868,0.25226 0.50014,0.52499 0.73062,0.80368 0.0657,0.0795 0.15536,0.13735 0.21919,0.21918 1.33381,1.71468 2.11879,3.86106 2.11879,6.21026 0,3.33349 -1.61844,6.31488 -4.09146,8.18293 l 0,-11.47071 0,-4.82209 z m 273.2513,0 9.86335,0 0,7.89068 -9.86335,0 0,-7.89068 z m -114.7071,2.63023 0,25.2794 26.30227,0 0,-12.20133 -22.28386,0 0,-2.63023 22.28386,0 0,-10.44784 -26.30227,0 z m -135.60278,1.46124 0,12.12826 4.09146,0 0,-12.12826 -4.09146,0 z m 139.62119,1.75348 18.26546,0 0,4.0184 -18.26546,0 0,-4.0184 z m -266.01819,4.89515 8.6213,0 0,12.20132 -8.6213,0 0,-12.20132 z m 376.70688,0.9498 9.86335,0 0,10.88621 -9.86335,0 0,-10.88621 z m -174.98312,3.65309 0,7.30619 3.72615,0 0,-7.30619 -3.72615,0 z m 5.62576,0 0,9.5711 4.16453,0 0,-9.5711 -4.16453,0 z m 5.62576,0 0,7.30619 3.72616,0 0,-7.30619 -3.72616,0 z m 137.94077,0 0,7.30619 3.72616,0 0,-7.30619 -3.72616,0 z m 5.62576,0 0,9.5711 4.16453,0 0,-9.5711 -4.16453,0 z m 5.62577,0 0,7.30619 3.72615,0 0,-7.30619 -3.72615,0 z m -96.14939,3.58003 18.26546,0 0,5.84495 -18.26546,0 0,-5.84495 z"
       id="path3019-4"
       inkscape:connector-curvature="0" />
  </g>
</svg>
